<?xml version="1.0" encoding="UTF-8"?>
<!DOCTYPE svg PUBLIC "-//W3C//DTD SVG 1.1//EN" "http://www.w3.org/Graphics/SVG/1.1/DTD/svg11.dtd">
<!-- Creator: CorelDRAW X6 -->
<svg xmlns="http://www.w3.org/2000/svg" xml:space="preserve" width="717px" height="197px" version="1.1" style="shape-rendering:geometricPrecision; text-rendering:geometricPrecision; image-rendering:optimizeQuality; fill-rule:evenodd; clip-rule:evenodd"
viewBox="0 0 754310 206857"
 xmlns:xlink="http://www.w3.org/1999/xlink">
 <defs>
  <style type="text/css">
   <![CDATA[
    .fil0 {fill:#D1AD6D}
    .fil1 {fill:#D1AD6D;fill-rule:nonzero}
   ]]>
  </style>
 </defs>
 <g id="Layer_x0020_1">
  <metadata id="CorelCorpID_0Corel-Layer"/>
  <g id="_1491913392">
   <g id="_1200110416">
    <g>
     <path class="fil0" d="M615436 95774l10824 259 11 -52178 -9172 -44c-2661,5353 -18691,37043 -20774,38450l-19203 -38423 -10954 -44c1079,5337 351,20574 341,26953l-49 23158c664,3200 -1160,1657 2089,2115 1295,-226 1350,-1456 1398,-4068 184,-9988 -707,-30767 194,-38304 1230,3793 20277,40193 22316,42729 2110,-1640 19976,-36686 23099,-42158l-108 41553 0 0 -12 2z"/>
     <path class="fil0" d="M503808 95099l-189 -771c-2671,-2126 -13814,-22457 -14110,-23585 5724,-2509 8584,-1721 11314,-7581 2531,-5429 972,-11412 -2374,-14521 -7339,-6815 -23035,-5325 -33896,-4948l-103 53392 9712 -69 124 -50316c9405,427 17304,-917 17801,9999 588,12902 -10425,11451 -16209,11418 1020,3863 6108,10981 8212,14644 3027,5272 5708,9642 8147,14153 15205,161 11255,582 11580,-1818l0 0 -9 3z"/>
     <path class="fil0" d="M398687 43640l-10662 189 -103 22825c-4338,1041 -18870,437 -24146,308l-37 -23111 -9707 -21 -48 53197 9803 16 17 -26941 24253 75 -86 26877 10442 -92 274 -53316 0 0 0 -6z"/>
     <path class="fil0" d="M707504 97248l3199 -254 97 -40997 36167 37091c2348,2439 2461,4019 7203,3928l49 -53192 -3188 53 -146 37867 -20439 -20347c-3399,-3582 -6454,-6652 -9739,-10203 -1711,-1846 -3518,-3345 -5196,-5094 -3060,-3194 -2449,-2195 -8040,-2298l33 53450 0 0 0 -4z"/>
     <path class="fil0" d="M533334 55922l11342 21772 -6503 85 -1937 5 -3232 0 -3874 12 -6772 -141 10976 -21729 0 0 0 -4zm-24422 41110c4501,-5 3179,1306 7139,-6621 1506,-3015 3469,-6378 4673,-9248l25910 -81 7641 15799 10381 173c-1414,-4192 -10910,-22587 -13511,-27551 -2504,-4787 -4663,-9076 -6902,-13690l-5196 -10220c-178,-340 -815,-1516 -928,-1704 -86,-141 -189,-297 -275,-432l-960 -1294c-1274,1009 -26958,51173 -27967,54875l0 0 -5 -6z"/>
     <path class="fil0" d="M240915 55938l11165 21772 -22307 64c1549,-4100 9032,-19484 11142,-21831l0 -5zm-24734 41082l3702 0 8174 -15863 25760 -70c2547,5984 5471,10414 7657,15972l10494 -5 -20611 -41661c-2191,-4149 -4646,-10278 -7187,-13758 -1516,1656 -27076,52290 -27994,55393l0 0 5 -8z"/>
     <path class="fil0" d="M429277 55851l11309 21815 -5795 113 -7754 0 -3231 0 -5515 -64 10986 -21864zm2136 -12658c-2320,7159 -25479,49927 -26483,53795l3377 -86 8348 -15631 25603 -242 8045 15836 10338 152c-4052,-10598 -14401,-28328 -20245,-40787 -2137,-4559 -5466,-9562 -6922,-14321 -1592,-675 -426,-242 -2055,1279l-6 5z"/>
     <path class="fil0" d="M653211 55862c3492,4694 8871,16046 11688,21864l-7835 48 -3874 5 -2585 -5 -5169 0 -2918 -64 10694 -21848 0 0 -1 0zm-24081 41467l3378 -357 2563 -3798 5757 -12071 25916 -64 7770 15933 10257 0 -20655 -41559c-1921,-3637 -4792,-10704 -7328,-13737 -4144,7036 -15928,31732 -20617,40980 -1857,3665 -6206,11018 -7042,14671l0 0 1 2z"/>
     <path class="fil0" d="M277677 97306l22716 -37c7014,81 6572,631 6588,-1527 11,-1548 -1370,-1684 -3944,-1705l-15216 124 -281 -50397 -9820 -21 -48 53574 0 0 5 -11z"/>
     <polygon class="fil0" points="688484,43688 688737,97059 699145,97048 699108,43829 "/>
    </g>
    <g>
     <g>
      <path class="fil0" d="M542280 129789c513,1781 13706,27147 14925,28754 1338,-1209 13505,-24744 15447,-28371l152 27826 7036 157 33 -34960 -6243 -32c-3280,7117 -9545,18524 -13397,25662 -1765,-928 -11099,-22645 -13398,-25570l-7057 -103c674,10586 -394,22085 32,32714 43,1117 -237,3194 1635,2131 772,-443 718,691 664,-3907l184 -24297 0 0 -13 -4z"/>
      <path class="fil0" d="M505167 143364c-2320,-21626 21577,-26190 23580,-4731 2089,22327 -21281,26190 -23580,4731zm6751 -20227c-22829,5012 -17186,41725 10122,35946 23002,-4867 17223,-41947 -10122,-35946z"/>
      <path class="fil0" d="M647546 158802l1560 -610c21,-81 80,-226 103,-334l103 -12352c-11,-4634 37,-9259 48,-13888 1721,1058 5089,5073 6987,6874l17170 17672c1797,1818 1668,2628 4803,2665l64 -35650 -1884 60c-987,1769 -161,20223 -463,25289l-20084 -20379c-5406,-5579 -3528,-4927 -8973,-4980 366,5600 59,12324 59,18054l497 17580 0 0 10 -1z"/>
      <path class="fil0" d="M591581 125160c3048,5 7678,-432 10269,534 2730,1020 4446,3696 4397,6954 -124,8111 -7479,7199 -14860,7176l194 -14666 0 2zm-6804 4484l43 29250 6572 -65 54 -16818c6286,-5 20137,1138 21507,-8083 719,-4846 -2303,-7769 -5671,-9377 -4565,-2175 -16203,-1544 -22468,-1479l-32 6577 0 0 -5 -5z"/>
      <path class="fil0" d="M735481 123185c-12604,2536 -11854,11881 -8315,15820 5293,5893 17244,3265 18853,10037 2326,9787 -12097,11056 -18831,3215 -2439,-2838 -4252,-405 -97,3103 9827,8293 28485,3405 25361,-9712 -2186,-9161 -13791,-8465 -18189,-10754 -3545,-1845 -3835,-6524 -237,-8693 3092,-1867 8472,-1463 11499,124 1688,885 3102,2990 4311,2347 2585,-1381 -5239,-7322 -14347,-5487l0 0 -8 0z"/>
      <path class="fil0" d="M624274 131381l7775 14374 -14924 173 7149 -14547zm-16177 27432c2488,-37 2110,480 3157,-1295 739,-1257 1112,-2105 1612,-3123 1009,-2046 1970,-4128 3130,-6098l17035 -156 5390 10565 6998 129 -18621 -37106c-572,620 -18200,34884 -18702,37085l0 0 1 -1z"/>
      <path class="fil0" d="M697175 158873l21676 -70c2633,-389 -1025,1014 1386,-431l-69 -1285c-1014,-534 -1657,-378 -3448,-366 -1447,11 -2893,0 -4338,-5 -2865,-12 -5752,85 -8606,-103l48 -15411c2785,-76 13678,341 15325,-405l76 -1645 -15341 -205 -48 -13819 15037 28c1398,-357 847,242 1327,-1079 -571,-1586 1101,-718 -1721,-1068 -437,-54 -2466,37 -3075,43 -2018,16 -4036,0 -6054,0 -3976,0 -8164,-161 -12114,60l-64 35763 0 0 3 -2z"/>
      <path class="fil0" d="M495244 153223c-2596,-1435 -1548,1193 -7192,2994 -24847,7932 -24557,-37797 -949,-30712 6157,1845 4641,4376 7878,2778 -3556,-8676 -33686,-9248 -33352,12939 136,8735 5547,14326 12151,16732 9707,3541 21475,-987 21464,-4726l0 0 0 -5z"/>
      <polygon class="fil0" points="684248,158753 691267,158834 691289,123158 684324,123174 "/>
     </g>
     <g>
      <path class="fil0" d="M396038 139837c-993,-8309 2649,-17223 9216,-18831 8638,-2115 13484,5811 14293,13263 2439,22435 -20989,26665 -23509,5568l0 0zm6729 -20662c-22830,5105 -17311,41613 10100,35953 9551,-1975 16738,-11391 13662,-23095 -2482,-9448 -11984,-15497 -23758,-12863l0 0 -4 5z"/>
      <path class="fil0" d="M248259 121318l-788 -427c-7753,-2029 -14698,-4203 -22365,1079 -11968,8250 -9464,29321 6486,32736 8920,1910 16074,-1020 22053,-3960l109 -13203 -15319 86c-1025,280 -421,5 -1068,490 361,2138 971,1452 3598,1419 1910,-21 3831,-16 5731,141l21 11487c-4031,1219 -10317,4462 -16090,-1057 -3739,-3572 -5708,-9432 -4916,-15993 729,-6060 3610,-11115 8293,-12750 2979,-1041 6577,-599 9647,415 5752,1894 4085,4522 6821,2191 -459,-1074 0,-302 -864,-1252l-1349 -1402 0 0z"/>
      <path class="fil0" d="M349932 131236c8255,-125 13106,728 14067,9145 398,3464 -341,6853 -2115,9195 -3179,4181 -5973,3593 -11887,3496l-53 -20099 -11 -1744 -1 7zm140 34025l-135 -10419c5800,216 11353,-11 15405,-2693 8168,-5406 7295,-18082 -4047,-21491 -4522,-1359 -12789,-848 -17871,-809l-27 35305 6669 108 0 0 6 -1z"/>
      <path class="fil0" d="M280655 153983l162 157 -3702 -5547c-1062,-1781 -2299,-3432 -3167,-5245 2913,-712 5843,-1527 6857,-4289 1112,-3027 -318,-6049 -2515,-7511 -3971,-2645 -14541,-1781 -20051,-1700l103 24976 6438 81 86 -23558c5056,130 9534,-85 9896,5052 405,5763 -4025,5654 -8963,5730 437,1975 6238,10377 7424,12681 1366,37 2730,48 4096,53 4052,32 3086,-157 3335,-885l0 0 1 5z"/>
      <path class="fil0" d="M290449 144552c-1808,-16279 14217,-18297 15961,-4554 2039,16117 -14397,18665 -15961,4554zm-6556 0c2520,16387 30940,14256 28388,-4257 -2261,-16414 -31258,-14417 -28388,4257z"/>
      <path class="fil0" d="M430733 154928l6539 -38 60 -23488c4478,249 4904,572 5498,-998 -1305,-987 -3819,-571 -5422,-582 -308,-3465 -675,-8795 631,-11434 3723,-1187 3481,663 4381,-1274 -631,-1133 -949,-1041 -5164,-772 -1883,125 -3232,502 -4629,1765 -2672,2412 -1949,6998 -1959,11013 -21,8584 -85,17234 76,25808l0 0 -11 0z"/>
      <path class="fil0" d="M332621 154837c691,-464 1447,-643 2278,-1161 956,-594 1661,-1365 2288,-1845 2833,-5855 1916,-8164 1916,-16274 0,-4376 652,-4899 -858,-5574 -3545,2359 4905,22722 -7781,23272 -5379,232 -7672,-2849 -7748,-7818 -76,-5100 -33,-10295 -33,-15399l-6512 -65c97,4662 -836,16318 923,19732 2553,4948 8703,6324 15530,5137l0 0 -3 -5z"/>
     </g>
    </g>
   </g>
   <path class="fil0" d="M105838 107580l-1161 766 -3842 2078 -2384 1532c-373,210 -929,556 -1198,793 -378,329 -502,1182 -37,1490l1301 594 2531 1478 3771 2154c2589,1861 3183,85 6648,-1511l3696 -2207c237,-124 1214,-447 1355,-631 340,-448 48,-1203 -243,-1436l-2460 -1456 -3674 -2223 -1322 -691c-653,-626 -1841,-1267 -2968,-718l0 0 -13 -12zm26153 -1954c712,3362 1608,6411 2704,8514 1020,1965 891,2369 -1235,3534 -431,238 -804,620 -1182,917 -4176,3103 -14201,9318 -18982,11229l-2753 1355c-442,242 -841,399 -1414,588 -1640,539 -1511,2055 -4133,274 -377,-258 -976,-394 -1435,-583l-4160 -1958c-702,-378 -22511,-11110 -21070,-14827 200,-514 459,-956 599,-1414 760,-2525 1673,-5073 2633,-7641l-10112 0c-901,1792 -1716,3367 -2407,4646 -1969,152 -9416,-4025 -13360,-4296 -3718,-253 -4991,-393 -8186,1327 -1322,712 -2310,3939 -2294,5375 17,1483 205,2022 719,3178 274,626 971,2089 1365,2525 1732,1926 885,1225 2962,2838 3891,3022 12891,4630 17348,3464 1538,-405 2471,-571 3518,-1430 1678,-1375 577,152 3690,-3054 2271,-2342 3016,-141 4856,933 6178,3610 12243,8401 18804,12232 939,550 1958,702 1845,2050 -12238,9340 -51757,9573 -58824,-7721 0,0 0,-5 -5,-5 -788,-788 -604,-945 -1145,-1592 -177,836 -48,1808 523,2973 17795,24956 37593,18907 60697,11143l3006 -1431c1354,-912 3421,-679 4662,184 12330,8563 42789,8822 53742,2283 3287,-2159 10942,-10085 9836,-16436 -447,146 -426,1085 -675,1473 -2703,4149 -2676,6210 -7603,9389 -502,324 -788,437 -1278,820 -14758,11563 -51087,1004 -50110,-1813 167,-491 820,-680 1213,-901 7192,-4008 12665,-8251 19329,-12448 1817,-1144 2789,-3572 5157,-1020 583,626 1506,1661 2121,2089 486,334 2267,1489 2633,1586 1182,309 2115,848 3373,945 9285,728 24868,-3783 20547,-15751 -146,-410 -546,-1069 -761,-1338 -382,-470 -2989,-1884 -4321,-1970 -6183,-410 -8277,1042 -13895,3006l-1462 751c-2541,1052 -4517,-858 -6038,-4020l-9038 0 0 0 -4 28zm27691 2607c873,-103 2881,-221 3604,222 1452,884 1225,274 1792,2121 362,1176 16,2476 -345,3453 -1042,2822 -5266,7030 -8547,7175 -4397,194 -10441,-6631 -9329,-8115 205,-269 3594,-1813 3966,-1964l4220 -1695c615,-302 636,-334 1430,-480 1657,-313 2023,-582 3216,-718l0 0 -7 1zm-108720 -38c3815,-907 11785,2967 15314,4489 1219,523 479,1737 -189,2444 -6890,7274 -10511,9928 -17051,-610 -1095,-2800 -1499,-5509 1926,-6323z"/>
   <path class="fil0" d="M97841 82668c-945,668 -7473,437 -7835,48 -626,-680 2536,-8013 3146,-9534 259,-491 243,-551 924,-594 1068,1495 3842,8843 3771,10080l0 0 -6 0zm-8823 2590c464,-232 6929,-103 8062,-119 1581,-27 2147,157 2617,1435l744 2299c200,383 168,173 286,680 491,2061 788,1716 1079,3010 237,1042 253,2617 -65,3615 -313,988 -2018,696 -2990,1025 -1370,470 -1062,1765 70,2055 663,173 3200,0 3944,-64 2029,-178 5789,-97 7867,32 912,60 2881,362 3680,65 1235,-459 1177,-1749 27,-2159 -1375,-491 -1937,346 -3146,-873 -286,-291 -1338,-2504 -1354,-2612l-81 -3971c-5,-1414 -27,-2385 -21,-3055 16,-1791 258,-1386 1737,-1419 2466,-48 17131,-301 17941,114 530,274 486,831 486,1515 11,3804 539,10398 1635,16463l8521 0c-2278,-6281 -3271,-15135 -3545,-17811 -136,-1311 -104,-2720 -81,-4111 37,-2677 -205,-5455 -205,-8191 0,-1392 168,-2677 135,-4096 -27,-1290 -253,-4662 735,-5584 1791,-1661 2854,-815 4392,-1926 37,-1467 -2504,-1036 -3647,-863 -1398,210 -8152,221 -9561,32 -1419,-189 -3076,-551 -3637,675 269,712 1101,723 2061,863 933,136 1343,513 1997,956 534,366 998,949 1062,1856 275,3858 162,10441 113,14401 -37,3345 535,3545 -2303,3557l-11649 -17c-988,5 -1975,0 -2963,12 -744,5 -2174,43 -2860,-33 -615,-841 -480,-3609 -486,-4780 -16,-3577 -152,-7150 -21,-10721 32,-868 453,-3825 1030,-4311 53,-44 1705,-761 1932,-809 907,-205 1490,-54 2034,-615 583,-599 -161,-1193 -993,-1193 -771,5 -1678,119 -2541,135 -1041,21 -1699,162 -2536,226 -1057,81 -6534,-274 -7742,-334 -772,-37 -1866,-361 -2310,200 -507,636 270,1230 777,1371 1338,378 3032,382 3604,1840 675,1700 556,7678 535,10117 -12,723 399,3291 -125,3729 -490,399 -718,-480 -900,-767 -2196,-4948 -3836,-9794 -5844,-14806 -189,-475 -583,-1538 -874,-1857 -394,-426 -1122,-771 -1866,-388 -993,506 -13468,27729 -21167,43263l9826 0c1926,-5067 3934,-10193 5266,-15351 324,-1246 275,-2163 1322,-2687l0 0 -4 -18z"/>
   <path class="fil0" d="M10635 102606l-8347 -10269 51540 -41218 41559 -51119 11185 8940 11186 -8940 41558 51119 51541 41218 -8348 10269 10274 0c0,194 161,356 361,356l0 0c-200,0 -361,162 -361,357l-212421 0c0,-194 -162,-357 -362,-357l0 0c200,0 362,-161 362,-356l10273 0 0 0zm184923 0l-39352 -48405 -49635 -39697 -49642 39697 -39352 48405 20978 0 5256 0 772 0 2380 0 744 0 9269 0 1285 0 8385 0 966 0 3156 0 71601 0 26186 0 27001 0 2 0zm-181449 -2617l26812 -32979 -32493 25986 5688 6993 0 0 -7 0zm95937 -88264l33249 26591 -26202 -32229 -7053 5639 0 0 6 -1zm88988 88264l-26812 -32979 32493 25986 -5688 6993 0 0 7 0zm-95937 -88264l-33249 26591 26202 -32229 7053 5639 0 0 -6 -1z"/>
   <path class="fil0" d="M2288 114519l6933 -8525 -8504 0c0,-194 -162,-356 -362,-356l0 0c200,0 362,-162 362,-357l211703 0c0,194 161,357 361,357l0 0c-200,0 -361,161 -361,356l-8504 0 6933 8525 -51540 41219 -41559 51119 -11185 -8947 -11186 8947 -41559 -51119 -51540 -41219 8 0zm16705 -8525l37937 46668 49642 39697 49635 -39697 37938 -46668 -175146 0 -6 0zm180034 879l-26812 32979 32493 -25986 -5687 -6993 0 0 6 0zm-95935 88264l-33249 -26591 26202 32228 7053 -5638 0 0 -6 1zm-88988 -88264l26812 32979 -32493 -25986 5688 -6993 0 0 -7 0zm95937 88264l33249 -26591 -26202 32228 -7053 -5638 0 0 6 1z"/>
  </g>
  <path class="fil1" d="M710475 181797l3680 -448c114,941 429,1660 941,2159 512,498 1129,747 1854,747 779,0 1433,-300 1968,-895 530,-595 797,-1397 797,-2412 0,-954 -253,-1715 -765,-2273 -512,-559 -1134,-840 -1871,-840 -485,0 -1061,97 -1735,286l420 -3080c1024,27 1803,-198 2342,-674 540,-469 808,-1102 808,-1889 0,-669 -199,-1200 -595,-1601 -397,-396 -922,-595 -1582,-595 -650,0 -1204,226 -1660,678 -461,451 -738,1111 -840,1979l-3485 -596c244,-1207 609,-2172 1102,-2896 488,-718 1175,-1286 2051,-1701 876,-410 1864,-618 2951,-618 1864,0 3358,595 4484,1790 926,976 1391,2083 1391,3315 0,1743 -949,3140 -2854,4177 1134,245 2039,789 2721,1638 677,849 1019,1872 1019,3070 0,1740 -636,3225 -1905,4451 -1267,1227 -2845,1839 -4735,1839 -1789,0 -3274,-515 -4450,-1553 -1180,-1033 -1864,-2385 -2052,-4058z"/>
  <path id="1" class="fil1" d="M738839 172090l-3680 406c-88,-757 -323,-1314 -701,-1675 -378,-359 -867,-539 -1471,-539 -802,0 -1480,360 -2034,1080 -553,719 -898,2218 -1041,4495 944,-1116 2116,-1673 3523,-1673 1581,0 2942,603 4071,1811 1130,1213 1693,2772 1693,4686 0,2029 -595,3662 -1784,4888 -1191,1227 -2717,1839 -4581,1839 -1996,0 -3641,-779 -4929,-2337 -1286,-1558 -1932,-4109 -1932,-7659 0,-3638 674,-6263 2015,-7872 1342,-1609 3086,-2412 5229,-2412 1504,0 2749,424 3737,1273 986,843 1612,2075 1885,3689zm-8605 8291c0,1236 286,2190 853,2863 567,674 1213,1011 1946,1011 701,0 1286,-278 1757,-826 466,-554 701,-1457 701,-2711 0,-1292 -253,-2236 -757,-2842 -507,-598 -1134,-898 -1890,-898 -733,0 -1347,286 -1853,862 -504,572 -757,1421 -757,2541z"/>
  <path id="2" class="fil1" d="M741500 182447l3679 -405c89,751 323,1309 696,1668 374,364 872,545 1485,545 780,0 1439,-365 1983,-1089 544,-723 890,-2227 1043,-4501 -955,1108 -2145,1661 -3579,1661 -1554,0 -2900,-599 -4030,-1803 -1130,-1204 -1692,-2768 -1692,-4695 0,-2010 594,-3629 1788,-4856 1195,-1231 2716,-1844 4562,-1844 2005,0 3656,779 4942,2334 1288,1558 1933,4118 1933,7686 0,3625 -669,6244 -2006,7850 -1337,1609 -3080,2410 -5230,2410 -1544,0 -2789,-415 -3744,-1245 -950,-825 -1563,-2065 -1830,-3716zm8549 -8309c0,-1223 -281,-2172 -844,-2846 -558,-673 -1208,-1010 -1946,-1010 -700,0 -1282,277 -1743,830 -466,554 -696,1457 -696,2711 0,1278 254,2214 756,2813 503,596 1129,895 1886,895 728,0 1342,-286 1840,-862 498,-577 747,-1421 747,-2531z"/>
 </g>
</svg>
